# xmcd
#
# Track frame offsets:
#	150
#	17217
#	34493
#	45817
#	59493
#	74511
#	93837
#	117736
#	136177
#	148192
#
# Disc length: 2193 seconds
#
# Revision: 0
# Processed by: cddbd v1.5.2PL0 Copyright (c) Steve Scherf et al.
# Submitted via: audiograbber 1.83.01
#
DISCID=93088f0a
DTITLE=Detlef Lauenstein - Chressdachswünsche
DYEAR=2012
DGENRE=
TTITLE0=Du un ich
TTITLE1=Chressdachswunsch
TTITLE2=Lonely Boy in Cologne
TTITLE3=Un dann
TTITLE4=Kölle un die Pänz us aller Welt
TTITLE5=Ich freu mich...
TTITLE6=Dat Mädche met d´r Schwefelcher
TTITLE7=Stroße en Kölle
TTITLE8=Oh, Willi Ostermann
TTITLE9=Du un ich (live)
EXTD=
EXTT0=
EXTT1=
EXTT2=
EXTT3=
EXTT4=
EXTT5=
EXTT6=
EXTT7=
EXTT8=
EXTT9=
PLAYORDER=
